<svg width="149" height="128" viewBox="0 0 149 128" fill="none" xmlns="http://www.w3.org/2000/svg">
<path d="M106.696 60.175V101.664C106.696 106.38 102.868 110.195 98.1244 110.195H83.4742L70.0334 128V110.195H55.8143C51.0816 110.195 47.2429 106.38 47.2429 101.664V60.175C47.2429 55.4591 51.0816 51.634 55.8143 51.634H98.1244C102.857 51.634 106.696 55.4487 106.696 60.175Z" fill="#3BB2B2"/>
<path d="M76.9848 22.4998V63.9891C76.9848 68.705 73.1566 72.5301 68.4239 72.5301H26.1138C21.3812 72.5301 17.5424 68.7155 17.5424 63.9891V57.7851L0 44.6435H17.5424V22.4998C17.5424 17.7839 21.3707 13.9692 26.1138 13.9692H68.4239C73.1566 13.9692 76.9848 17.7839 76.9848 22.4998Z" fill="#DE2085"/>
<path d="M148.984 13.9695L130.664 27.698V49.9465C130.664 54.7043 126.793 58.5609 122.019 58.5609H79.8662C75.0915 58.5609 71.2212 54.7043 71.2212 49.9465V8.61436C71.2212 3.85655 75.0915 0 79.8662 0H122.019C126.793 0 130.664 3.85655 130.664 8.61436V13.959H148.984V13.9695Z" fill="#4A89DB"/>
</svg>
